<?xml version="1.0" standalone="no"?>
<!DOCTYPE svg PUBLIC "-//W3C//DTD SVG 20010904//EN"
 "http://www.w3.org/TR/2001/REC-SVG-20010904/DTD/svg10.dtd">
<svg version="1.0" xmlns="http://www.w3.org/2000/svg"
 width="96.000000pt" height="96.000000pt" viewBox="0 0 96.000000 96.000000"
 preserveAspectRatio="xMidYMid meet">
<metadata>
Created by potrace 1.11, written by Peter Selinger 2001-2013
</metadata>
<g transform="translate(0.000000,96.000000) scale(0.100000,-0.100000)"
fill="#000000" stroke="none">
<path d="M132 828 c-17 -17 -17 -539 0 -556 8 -8 52 -12 130 -12 111 0 118 -1
118 -20 0 -18 -7 -20 -70 -20 l-69 0 -51 -50 -51 -50 341 0 341 0 -51 50 -51
50 -69 0 c-63 0 -70 2 -70 20 0 19 7 20 111 20 61 0 119 5 130 10 18 10 19 24
19 271 0 160 -4 268 -10 280 -10 18 -25 19 -348 19 -250 0 -341 -3 -350 -12z"/>
</g>
</svg>
